<?xml version="1.0" encoding="UTF-8"?>
<svg xmlns="http://www.w3.org/2000/svg" xmlns:xlink="http://www.w3.org/1999/xlink" width="13px" height="15px" viewBox="0 0 13 14" version="1.1">
<g id="surface1">
<path style=" stroke:none;fill-rule:nonzero;fill:rgb(0%,0%,0%);fill-opacity:1;" d="M 0 2.625 C 0 2.140625 0.414062 1.75 0.929688 1.75 L 12.070312 1.75 C 12.585938 1.75 13 2.140625 13 2.625 C 13 3.109375 12.585938 3.5 12.070312 3.5 L 0.929688 3.5 C 0.414062 3.5 0 3.109375 0 2.625 Z M 0 7 C 0 6.515625 0.414062 6.125 0.929688 6.125 L 12.070312 6.125 C 12.585938 6.125 13 6.515625 13 7 C 13 7.484375 12.585938 7.875 12.070312 7.875 L 0.929688 7.875 C 0.414062 7.875 0 7.484375 0 7 Z M 13 11.375 C 13 11.859375 12.585938 12.25 12.070312 12.25 L 0.929688 12.25 C 0.414062 12.25 0 11.859375 0 11.375 C 0 10.890625 0.414062 10.5 0.929688 10.5 L 12.070312 10.5 C 12.585938 10.5 13 10.890625 13 11.375 Z M 13 11.375 "/>
</g>
</svg>
