<?xml version="1.0" encoding="UTF-8"?>
<svg xmlns="http://www.w3.org/2000/svg" xmlns:xlink="http://www.w3.org/1999/xlink" width="16px" height="14px" viewBox="0 0 15 14" version="1.1">
<g id="surface1">
<path style=" stroke:none;fill-rule:nonzero;fill:rgb(0%,0%,0%);fill-opacity:1;" d="M 0.625 0 C 0.277344 0 0 0.292969 0 0.65625 C 0 1.019531 0.277344 1.3125 0.625 1.3125 L 1.980469 1.3125 L 3.550781 9.96875 C 3.609375 10.277344 3.867188 10.5 4.167969 10.5 L 12.707031 10.5 C 13.054688 10.5 13.332031 10.207031 13.332031 9.84375 C 13.332031 9.480469 13.054688 9.1875 12.707031 9.1875 L 4.683594 9.1875 L 4.449219 7.875 L 12.703125 7.875 C 13.074219 7.875 13.402344 7.617188 13.503906 7.238281 L 14.910156 1.988281 C 15.058594 1.429688 14.660156 0.875 14.109375 0.875 L 3.175781 0.875 L 3.113281 0.53125 C 3.058594 0.222656 2.800781 0 2.5 0 Z M 4.582031 14 C 5.273438 14 5.832031 13.414062 5.832031 12.6875 C 5.832031 11.960938 5.273438 11.375 4.582031 11.375 C 3.894531 11.375 3.332031 11.960938 3.332031 12.6875 C 3.332031 13.414062 3.894531 14 4.582031 14 Z M 13.332031 12.6875 C 13.332031 11.960938 12.773438 11.375 12.082031 11.375 C 11.394531 11.375 10.832031 11.960938 10.832031 12.6875 C 10.832031 13.414062 11.394531 14 12.082031 14 C 12.773438 14 13.332031 13.414062 13.332031 12.6875 Z M 13.332031 12.6875 "/>
</g>
</svg>
