<?xml version="1.0" encoding="UTF-8"?>
<svg xmlns="http://www.w3.org/2000/svg" xmlns:xlink="http://www.w3.org/1999/xlink" width="8px" height="8px" viewBox="0 0 8 8" version="1.1">
<g id="surface1">
<path style=" stroke:none;fill-rule:nonzero;fill:rgb(0%,0%,0%);fill-opacity:1;" d="M 0.480469 0.75 L 0.0898438 1.140625 L 1.542969 2.574219 L 2.996094 4.003906 L 0.0898438 6.863281 L 0.492188 7.265625 L 0.890625 7.667969 L 2.703125 5.855469 C 3.703125 4.859375 4.519531 4.023438 4.519531 4.003906 C 4.519531 3.96875 0.925781 0.355469 0.890625 0.355469 C 0.878906 0.355469 0.695312 0.535156 0.480469 0.75 Z M 0.480469 0.75 "/>
<path style=" stroke:none;fill-rule:nonzero;fill:rgb(0%,0%,0%);fill-opacity:1;" d="M 3.859375 0.75 L 3.46875 1.140625 L 4.925781 2.574219 L 6.378906 4.003906 L 4.925781 5.433594 L 3.46875 6.863281 L 3.871094 7.265625 L 4.269531 7.667969 L 6.085938 5.855469 C 7.085938 4.859375 7.898438 4.023438 7.898438 4.003906 C 7.898438 3.96875 4.304688 0.355469 4.269531 0.355469 C 4.261719 0.355469 4.074219 0.535156 3.859375 0.75 Z M 3.859375 0.75 "/>
</g>
</svg>
