<?xml version="1.0" encoding="UTF-8"?>
<svg xmlns="http://www.w3.org/2000/svg" xmlns:xlink="http://www.w3.org/1999/xlink" width="15px" height="15px" viewBox="0 0 15 15" version="1.1">
<g id="surface1">
<path d="M 5.125 5.125 C 5.402344 4.855469 5.847656 4.855469 6.097656 5.125 L 7.472656 6.507812 L 8.875 5.125 C 9.152344 4.855469 9.597656 4.855469 9.847656 5.125 C 10.144531 5.402344 10.144531 5.847656 9.847656 6.097656 L 8.492188 7.472656 L 9.847656 8.875 C 10.144531 9.152344 10.144531 9.597656 9.847656 9.847656 C 9.597656 10.144531 9.152344 10.144531 8.875 9.847656 L 7.472656 8.492188 L 6.097656 9.847656 C 5.847656 10.144531 5.402344 10.144531 5.125 9.847656 C 4.855469 9.597656 4.855469 9.152344 5.125 8.875 L 6.507812 7.472656 L 5.125 6.097656 C 4.855469 5.847656 4.855469 5.402344 5.125 5.125 Z M 15 7.5 C 15 11.640625 11.640625 15 7.5 15 C 3.359375 15 0 11.640625 0 7.5 C 0 3.359375 3.359375 0 7.5 0 C 11.640625 0 15 3.359375 15 7.5 Z M 7.5 1.40625 C 4.132812 1.40625 1.40625 4.132812 1.40625 7.5 C 1.40625 10.867188 4.132812 13.59375 7.5 13.59375 C 10.867188 13.59375 13.59375 10.867188 13.59375 7.5 C 13.59375 4.132812 10.867188 1.40625 7.5 1.40625 Z M 7.5 1.40625 "/>
</g>
</svg>
