<?xml version="1.0" encoding="UTF-8"?>
<svg xmlns="http://www.w3.org/2000/svg" xmlns:xlink="http://www.w3.org/1999/xlink" width="13px" height="13px" viewBox="0 0 13 13" version="1.1">
<g id="surface1">
<path style=" stroke:none;fill-rule:nonzero;fill:#fff;fill-opacity:1;" d="M 1.21875 1.625 C 0.546875 1.625 0 2.171875 0 2.84375 C 0 3.226562 0.179688 3.585938 0.488281 3.820312 L 6.011719 7.960938 C 6.300781 8.179688 6.699219 8.179688 6.988281 7.960938 L 12.511719 3.820312 C 12.820312 3.585938 13 3.226562 13 2.84375 C 13 2.171875 12.453125 1.625 11.78125 1.625 Z M 0 4.46875 L 0 9.75 C 0 10.644531 0.730469 11.375 1.625 11.375 L 11.375 11.375 C 12.269531 11.375 13 10.644531 13 9.75 L 13 4.46875 L 7.476562 8.613281 C 6.894531 9.046875 6.105469 9.046875 5.523438 8.613281 Z M 0 4.46875 "/>
</g>
</svg>
