<?xml version="1.0" encoding="UTF-8"?>
<svg xmlns="http://www.w3.org/2000/svg" xmlns:xlink="http://www.w3.org/1999/xlink" width="15px" height="15px" viewBox="0 0 15 15" version="1.1">
<g id="surface1">
<path style=" stroke:none;fill-rule:nonzero;fill:rgb(0%,0%,0%);fill-opacity:1;" d="M 1.394531 8.800781 L 6.6875 13.742188 C 6.90625 13.949219 7.199219 14.0625 7.5 14.0625 C 7.800781 14.0625 8.09375 13.949219 8.3125 13.742188 L 13.605469 8.800781 C 14.496094 7.972656 15 6.808594 15 5.59375 L 15 5.421875 C 15 3.375 13.519531 1.628906 11.5 1.292969 C 10.164062 1.070312 8.804688 1.507812 7.851562 2.460938 L 7.5 2.8125 L 7.148438 2.460938 C 6.195312 1.507812 4.835938 1.070312 3.5 1.292969 C 1.480469 1.628906 0 3.375 0 5.421875 L 0 5.59375 C 0 6.808594 0.503906 7.972656 1.394531 8.800781 Z M 1.394531 8.800781 "/>
</g>
</svg>
