<?xml version="1.0" encoding="UTF-8"?>
<svg xmlns="http://www.w3.org/2000/svg" xmlns:xlink="http://www.w3.org/1999/xlink" width="11px" height="13px" viewBox="0 0 11 12" version="1.1">
<g id="surface1">
<path style=" stroke:none;fill-rule:nonzero;fill:rgb(0%,0%,0%);fill-opacity:1;" d="M 2.460938 10.5 L 0.183594 10.5 L 0.183594 3.488281 L 2.460938 3.488281 Z M 1.320312 2.535156 C 0.589844 2.535156 0 1.957031 0 1.261719 C 0 0.566406 0.589844 0 1.320312 0 C 2.050781 0 2.640625 0.566406 2.640625 1.261719 C 2.640625 1.957031 2.050781 2.535156 1.320312 2.535156 Z M 10.996094 10.5 L 8.722656 10.5 L 8.722656 7.085938 C 8.722656 6.273438 8.703125 5.230469 7.535156 5.230469 C 6.351562 5.230469 6.167969 6.113281 6.167969 7.027344 L 6.167969 10.5 L 3.890625 10.5 L 3.890625 3.488281 L 6.078125 3.488281 L 6.078125 4.445312 L 6.109375 4.445312 C 6.414062 3.894531 7.15625 3.3125 8.269531 3.3125 C 10.574219 3.3125 11 4.765625 11 6.648438 L 11 10.5 Z M 10.996094 10.5 "/>
</g>
</svg>
