<?xml version="1.0" encoding="UTF-8"?>
<svg xmlns="http://www.w3.org/2000/svg" xmlns:xlink="http://www.w3.org/1999/xlink" width="13px" height="13px" viewBox="0 0 13 13" version="1.1">
<g id="surface1">
<path style=" stroke:none;fill-rule:nonzero;fill:#fff;fill-opacity:1;" d="M 4.1875 0.625 C 3.992188 0.152344 3.476562 -0.0976562 2.984375 0.0351562 L 0.75 0.644531 C 0.308594 0.765625 0 1.167969 0 1.625 C 0 7.90625 5.09375 13 11.375 13 C 11.832031 13 12.234375 12.691406 12.355469 12.25 L 12.964844 10.015625 C 13.097656 9.523438 12.847656 9.007812 12.375 8.8125 L 9.9375 7.796875 C 9.523438 7.625 9.042969 7.742188 8.761719 8.09375 L 7.738281 9.34375 C 5.949219 8.5 4.5 7.050781 3.65625 5.261719 L 4.90625 4.242188 C 5.257812 3.957031 5.375 3.476562 5.203125 3.066406 L 4.1875 0.628906 Z M 4.1875 0.625 "/>
</g>
</svg>
