<?xml version="1.0" encoding="UTF-8"?>
<svg xmlns="http://www.w3.org/2000/svg" xmlns:xlink="http://www.w3.org/1999/xlink" width="15px" height="15px" viewBox="0 0 15 15" version="1.1">
<g id="surface1">
<path style=" stroke:none;fill-rule:nonzero;fill:rgb(0%,0%,0%);fill-opacity:1;" d="M 8.699219 10.089844 C 8.652344 10.03125 8.585938 10.003906 8.503906 10.003906 L 4 10.003906 L 4 7.003906 L 5.5 7.003906 C 5.636719 7.003906 5.753906 6.953125 5.851562 6.855469 C 5.953125 6.753906 6 6.636719 6 6.5 C 6 6.375 5.960938 6.269531 5.882812 6.179688 L 3.382812 3.179688 C 3.285156 3.066406 3.15625 3.007812 3 3.007812 C 2.84375 3.007812 2.71875 3.066406 2.617188 3.179688 L 0.117188 6.179688 C 0.0390625 6.269531 0 6.375 0 6.5 C 0 6.636719 0.0507812 6.753906 0.148438 6.855469 C 0.246094 6.953125 0.363281 7.003906 0.5 7.003906 L 2 7.003906 L 2 11.691406 C 2 11.707031 2.003906 11.738281 2.007812 11.78125 C 2.015625 11.824219 2.023438 11.855469 2.03125 11.871094 C 2.042969 11.886719 2.058594 11.90625 2.074219 11.933594 C 2.09375 11.960938 2.117188 11.976562 2.144531 11.988281 C 2.171875 12 2.210938 12.003906 2.25 12.003906 L 9.753906 12.003906 C 9.820312 12.003906 9.878906 11.980469 9.929688 11.929688 C 9.976562 11.878906 10.003906 11.820312 10.003906 11.753906 C 10.003906 11.703125 9.984375 11.648438 9.949219 11.589844 Z M 8.699219 10.089844 "/>
<path style=" stroke:none;fill-rule:nonzero;fill:rgb(0%,0%,0%);fill-opacity:1;" d="M 14.855469 8.152344 C 14.757812 8.050781 14.640625 8.003906 14.503906 8.003906 L 13.003906 8.003906 L 13.003906 3.3125 C 13.003906 3.296875 13 3.269531 12.996094 3.222656 C 12.992188 3.179688 12.984375 3.148438 12.972656 3.132812 C 12.960938 3.117188 12.949219 3.097656 12.929688 3.070312 C 12.910156 3.046875 12.886719 3.027344 12.859375 3.015625 C 12.832031 3.007812 12.796875 3 12.753906 3 L 5.25 3 C 5.183594 3 5.125 3.027344 5.074219 3.074219 C 5.027344 3.125 5 3.183594 5 3.25 C 5 3.308594 5.019531 3.359375 5.054688 3.40625 L 6.308594 4.90625 C 6.355469 4.96875 6.417969 5 6.503906 5 L 11.003906 5 L 11.003906 8.003906 L 9.503906 8.003906 C 9.367188 8.003906 9.25 8.050781 9.152344 8.152344 C 9.050781 8.25 9.003906 8.367188 9.003906 8.503906 C 9.003906 8.628906 9.042969 8.734375 9.121094 8.824219 L 11.621094 11.824219 C 11.726562 11.945312 11.851562 12.003906 12.003906 12.003906 C 12.15625 12.003906 12.28125 11.945312 12.386719 11.824219 L 14.886719 8.824219 C 14.964844 8.734375 15.003906 8.628906 15.003906 8.503906 C 15.003906 8.367188 14.957031 8.25 14.855469 8.152344 Z M 14.855469 8.152344 "/>
</g>
</svg>
