<?xml version="1.0" encoding="UTF-8"?>
<svg xmlns="http://www.w3.org/2000/svg" xmlns:xlink="http://www.w3.org/1999/xlink" width="13px" height="13px" viewBox="0 0 13 13" version="1.1">
<g id="surface1">
<path style=" stroke:none;fill-rule:nonzero;fill:rgb(0%,0%,0%);fill-opacity:1;" d="M 6.496094 0 C 6.707031 0 6.894531 0.132812 6.984375 0.34375 L 8.535156 3.929688 L 11.992188 4.507812 C 12.195312 4.539062 12.363281 4.699219 12.429688 4.917969 C 12.492188 5.140625 12.441406 5.378906 12.296875 5.539062 L 9.785156 8.339844 L 10.378906 12.285156 C 10.414062 12.515625 10.328125 12.75 10.160156 12.882812 C 9.992188 13.019531 9.753906 13.035156 9.589844 12.925781 L 6.496094 11.066406 L 3.386719 12.925781 C 3.226562 13.035156 3.003906 13.019531 2.835938 12.882812 C 2.667969 12.75 2.585938 12.515625 2.597656 12.285156 L 3.210938 8.339844 L 0.703125 5.539062 C 0.554688 5.378906 0.503906 5.140625 0.570312 4.917969 C 0.632812 4.699219 0.800781 4.539062 1.003906 4.507812 L 4.460938 3.929688 L 6.011719 0.34375 C 6.101562 0.132812 6.289062 0 6.496094 0 Z M 6.496094 2.003906 L 5.3125 4.753906 C 5.234375 4.933594 5.082031 5.058594 4.90625 5.089844 L 2.234375 5.53125 L 4.171875 7.695312 C 4.296875 7.832031 4.355469 8.035156 4.324219 8.230469 L 3.867188 11.265625 L 6.242188 9.839844 C 6.402344 9.742188 6.59375 9.742188 6.753906 9.839844 L 9.128906 11.265625 L 8.671875 8.230469 C 8.640625 8.035156 8.699219 7.832031 8.824219 7.695312 L 10.761719 5.53125 L 8.09375 5.089844 C 7.914062 5.058594 7.761719 4.933594 7.683594 4.753906 Z M 6.496094 2.003906 "/>
</g>
</svg>
