<?xml version="1.0" encoding="UTF-8"?>
<svg xmlns="http://www.w3.org/2000/svg" xmlns:xlink="http://www.w3.org/1999/xlink" width="12px" height="12px" viewBox="0 0 12 12" version="1.1">
<g id="surface1">
<path style=" stroke:none;fill-rule:nonzero;fill:rgb(0%,0%,0%);fill-opacity:1;" d="M 6 0.1875 C 2.6875 0.1875 0 2.789062 0 6 C 0 9.210938 2.6875 11.8125 6 11.8125 C 9.3125 11.8125 12 9.210938 12 6 C 12 2.789062 9.3125 0.1875 6 0.1875 Z M 8.78125 4.140625 C 8.691406 5.058594 8.300781 7.289062 8.101562 8.320312 C 8.015625 8.753906 7.851562 8.902344 7.691406 8.914062 C 7.34375 8.945312 7.078125 8.691406 6.742188 8.476562 C 6.210938 8.140625 5.914062 7.933594 5.402344 7.605469 C 4.808594 7.226562 5.195312 7.019531 5.53125 6.679688 C 5.621094 6.59375 7.15625 5.238281 7.183594 5.117188 C 7.1875 5.101562 7.191406 5.042969 7.15625 5.015625 C 7.121094 4.984375 7.070312 4.992188 7.03125 5.003906 C 6.980469 5.011719 6.136719 5.554688 4.5 6.621094 C 4.261719 6.78125 4.042969 6.859375 3.851562 6.855469 C 3.636719 6.851562 3.222656 6.738281 2.917969 6.640625 C 2.542969 6.523438 2.242188 6.460938 2.269531 6.257812 C 2.28125 6.15625 2.433594 6.046875 2.714844 5.9375 C 4.464844 5.199219 5.632812 4.714844 6.214844 4.476562 C 7.882812 3.808594 8.226562 3.691406 8.453125 3.6875 C 8.503906 3.6875 8.613281 3.699219 8.6875 3.753906 C 8.734375 3.792969 8.765625 3.851562 8.769531 3.910156 C 8.78125 3.988281 8.785156 4.0625 8.78125 4.140625 Z M 8.78125 4.140625 "/>
</g>
</svg>
