<?xml version="1.0" encoding="UTF-8"?>
<svg xmlns="http://www.w3.org/2000/svg" xmlns:xlink="http://www.w3.org/1999/xlink" width="12px" height="12px" viewBox="0 0 12 12" version="1.1">
<g id="surface1">
<path style=" stroke:none;fill-rule:nonzero;fill:rgb(0%,0%,0%);fill-opacity:1;" d="M 10.765625 3.554688 C 10.773438 3.664062 10.773438 3.769531 10.773438 3.875 C 10.773438 7.125 8.300781 10.875 3.777344 10.875 C 2.382812 10.875 1.089844 10.46875 0 9.769531 C 0.199219 9.792969 0.386719 9.800781 0.59375 9.800781 C 1.742188 9.800781 2.800781 9.410156 3.648438 8.75 C 2.566406 8.726562 1.660156 8.019531 1.347656 7.042969 C 1.5 7.066406 1.652344 7.082031 1.8125 7.082031 C 2.03125 7.082031 2.253906 7.050781 2.460938 6.996094 C 1.332031 6.769531 0.488281 5.777344 0.488281 4.582031 L 0.488281 4.554688 C 0.816406 4.734375 1.195312 4.851562 1.597656 4.867188 C 0.9375 4.425781 0.503906 3.671875 0.503906 2.816406 C 0.503906 2.359375 0.625 1.941406 0.835938 1.574219 C 2.046875 3.070312 3.867188 4.042969 5.910156 4.148438 C 5.871094 3.96875 5.847656 3.777344 5.847656 3.585938 C 5.847656 2.230469 6.945312 1.125 8.308594 1.125 C 9.015625 1.125 9.65625 1.425781 10.105469 1.902344 C 10.660156 1.796875 11.191406 1.589844 11.664062 1.308594 C 11.480469 1.878906 11.09375 2.359375 10.582031 2.664062 C 11.078125 2.613281 11.558594 2.476562 12 2.285156 C 11.664062 2.773438 11.246094 3.207031 10.765625 3.554688 Z M 10.765625 3.554688 "/>
</g>
</svg>
